<svg width="123.000000" height="41.000000" viewBox="0 0 123 41" fill="none" xmlns="http://www.w3.org/2000/svg" xmlns:xlink="http://www.w3.org/1999/xlink">
	<desc>
			Created with Pixso.
	</desc>
	<defs/>
	<path id="Zoom" d="M18.2 28L1.52 28L1.52 25.09L11.77 11.05L1.53 11.05L1.53 6.9L18.21 6.9L18.21 9.81L7.97 23.85L18.2 23.85L18.2 28ZM36.71 20.14C36.71 25.01 33.69 28.29 28.71 28.29C23.74 28.29 20.73 25.01 20.73 20.14C20.73 15.26 23.74 11.97 28.71 11.97C33.69 11.97 36.71 15.26 36.71 20.14ZM54.67 20.14C54.67 25.01 51.65 28.29 46.67 28.29C41.7 28.29 38.69 25.01 38.69 20.14C38.69 15.26 41.7 11.97 46.67 11.97C51.65 11.97 54.67 15.26 54.67 20.14ZM62.29 28L57.25 28L57.25 12.18L62.04 12.18L62.04 15.08L62.22 15.08C62.88 13.16 64.52 11.97 66.69 11.97C68.88 11.97 70.58 13.18 71 15.08L71.17 15.08C71.75 13.2 73.6 11.97 75.93 11.97C78.92 11.97 80.98 14 80.98 17.35L80.98 28L75.94 28L75.94 18.5C75.94 16.92 75.04 16.07 73.76 16.07C72.37 16.07 71.54 17.04 71.54 18.55L71.54 28L66.7 28L66.7 18.45C66.7 16.99 65.83 16.07 64.52 16.07C63.2 16.07 62.29 17.07 62.29 18.64L62.29 28ZM25.85 20.11C25.85 22.72 26.88 24.49 28.75 24.49C30.55 24.49 31.58 22.72 31.58 20.11C31.58 17.48 30.55 15.7 28.75 15.7C26.88 15.7 25.85 17.48 25.85 20.11ZM43.81 20.11C43.81 22.72 44.84 24.49 46.71 24.49C48.51 24.49 49.54 22.72 49.54 20.11C49.54 17.48 48.51 15.7 46.71 15.7C44.84 15.7 43.81 17.48 43.81 20.11Z" fill="#000000" fill-opacity="1.000000" fill-rule="evenodd"/>
	<path id="Исключить" d="M115.2 2L91.7998 2C87.4917 2 84 5.11511 84 8.95776L84 25.8552C84 29.6978 87.4917 32.8129 91.7998 32.8129L94.4463 32.8129L91.5947 39.6566C91.2446 40.4969 92.2217 41.2885 93.126 40.8969L111.785 32.8129L115.2 32.8129C119.508 32.8129 123 29.6978 123 25.8552L123 8.95776C123 5.11511 119.508 2 115.2 2ZM117.794 7.9209C117.794 9.14575 116.718 10.144 115.415 10.144C114.112 10.144 113.043 9.14575 113.043 7.9209C113.043 6.70312 114.112 5.70483 115.415 5.70483C116.718 5.70483 117.794 6.70312 117.794 7.9209ZM105.512 25.8052C104.74 27.2778 103.232 28.2974 100.889 28.2974C97.8726 28.2974 95.6426 26.7114 95.6426 23.582C95.6426 20.0491 98.4531 19.0012 101.583 18.7109C104.33 18.4419 105.413 18.3074 105.413 17.2878L105.413 17.2312C105.413 15.9285 104.556 15.178 103.062 15.178C101.491 15.178 100.549 15.9497 100.251 17.0046L96.1948 16.6719C96.8037 13.7903 99.2959 11.9778 103.083 11.9778C106.609 11.9778 109.803 13.5637 109.803 17.3303L109.803 28L105.64 28L105.64 25.8052L105.512 25.8052ZM117.596 28L113.206 28L113.206 12.1831L117.596 12.1831L117.596 28ZM99.834 23.4404C99.834 24.644 100.797 25.2742 102.149 25.2742C104.075 25.2742 105.441 24.0068 105.441 22.343L105.441 20.665C104.917 21.019 103.353 21.2456 102.397 21.3801C100.854 21.5925 99.834 22.2014 99.834 23.4404ZM92.79 25.7981C92.7754 27.1646 91.6357 28.269 90.3115 28.269C88.9521 28.269 87.834 27.1646 87.8408 25.7981C87.834 24.4458 88.9521 23.3484 90.3115 23.3484C91.6357 23.3484 92.7754 24.4458 92.79 25.7981Z" clip-rule="evenodd" fill="#1386F1" fill-opacity="1.000000" fill-rule="evenodd"/>
</svg>
