<svg width="123.000000" height="41.000000" viewBox="0 0 123 41" fill="none" xmlns="http://www.w3.org/2000/svg" xmlns:xlink="http://www.w3.org/1999/xlink">
	<desc>
			Created with Pixso.
	</desc>
	<defs/>
	<path id="Zoom" d="M18.2 28L1.52 28L1.52 25.09L11.77 11.05L1.53 11.05L1.53 6.9L18.21 6.9L18.21 9.81L7.97 23.85L18.2 23.85L18.2 28ZM36.71 20.14C36.71 25.01 33.69 28.29 28.71 28.29C23.74 28.29 20.73 25.01 20.73 20.14C20.73 15.26 23.74 11.97 28.71 11.97C33.69 11.97 36.71 15.26 36.71 20.14ZM54.67 20.14C54.67 25.01 51.65 28.29 46.67 28.29C41.7 28.29 38.69 25.01 38.69 20.14C38.69 15.26 41.7 11.97 46.67 11.97C51.65 11.97 54.67 15.26 54.67 20.14ZM62.29 28L57.25 28L57.25 12.18L62.04 12.18L62.04 15.08L62.22 15.08C62.88 13.16 64.52 11.97 66.69 11.97C68.88 11.97 70.58 13.18 71 15.08L71.17 15.08C71.75 13.2 73.6 11.97 75.93 11.97C78.92 11.97 80.98 14 80.98 17.35L80.98 28L75.94 28L75.94 18.5C75.94 16.92 75.04 16.07 73.76 16.07C72.37 16.07 71.54 17.04 71.54 18.55L71.54 28L66.7 28L66.7 18.45C66.7 16.99 65.83 16.07 64.52 16.07C63.2 16.07 62.29 17.07 62.29 18.64L62.29 28ZM25.85 20.11C25.85 22.72 26.88 24.49 28.75 24.49C30.55 24.49 31.58 22.72 31.58 20.11C31.58 17.48 30.55 15.7 28.75 15.7C26.88 15.7 25.85 17.48 25.85 20.11ZM43.81 20.11C43.81 22.72 44.84 24.49 46.71 24.49C48.51 24.49 49.54 22.72 49.54 20.11C49.54 17.48 48.51 15.7 46.71 15.7C44.84 15.7 43.81 17.48 43.81 20.11Z" fill="#FFFFFF" fill-opacity="1.000000" fill-rule="evenodd"/>
	<path id="Форма 1" d="M115.2 2L91.79 2C87.49 2 84 5.11 84 8.95L84 25.85C84 29.69 87.49 32.81 91.79 32.81L94.44 32.81L91.59 39.65C91.24 40.49 92.22 41.28 93.12 40.89L111.78 32.81L115.2 32.81C119.5 32.81 123 29.69 123 25.85L123 8.95C123 5.11 119.5 2 115.2 2Z" fill="#1386F1" fill-opacity="1.000000" fill-rule="evenodd"/>
	<path id=".ai" d="M117.79 7.92C117.79 9.14 116.71 10.14 115.41 10.14C114.11 10.14 113.04 9.14 113.04 7.92C113.04 6.7 114.11 5.7 115.41 5.7C116.71 5.7 117.79 6.7 117.79 7.92ZM105.51 25.8C104.74 27.27 103.23 28.29 100.88 28.29C97.87 28.29 95.64 26.71 95.64 23.58C95.64 20.04 98.45 19 101.58 18.71C104.33 18.44 105.41 18.3 105.41 17.28L105.41 17.23C105.41 15.92 104.55 15.17 103.06 15.17C101.49 15.17 100.54 15.94 100.25 17L96.19 16.67C96.8 13.79 99.29 11.97 103.08 11.97C106.6 11.97 109.8 13.56 109.8 17.33L109.8 28L105.63 28L105.63 25.8L105.51 25.8ZM117.59 28L113.2 28L113.2 12.18L117.59 12.18L117.59 28ZM99.83 23.44C99.83 24.64 100.79 25.27 102.14 25.27C104.07 25.27 105.44 24 105.44 22.34L105.44 20.66C104.91 21.01 103.35 21.24 102.39 21.38C100.85 21.59 99.83 22.2 99.83 23.44ZM92.78 25.79C92.77 27.16 91.63 28.26 90.31 28.26C88.95 28.26 87.83 27.16 87.84 25.79C87.83 24.44 88.95 23.34 90.31 23.34C91.63 23.34 92.77 24.44 92.78 25.79Z" fill="#FFFFFF" fill-opacity="1.000000" fill-rule="evenodd"/>
</svg>
